<svg height="73" viewBox="0 0 73 73" width="73" xmlns="http://www.w3.org/2000/svg"><g fill="none" fill-rule="nonzero"><rect fill="#fff" height="71" rx="14" stroke="#3d670b" stroke-width="2" width="71" x="1" y="1"/><g transform="matrix(-.25881905 .96592583 -.96592583 -.25881905 68.843367 18.615224)"><path d="m26 0-3.046875 5.05273438 3.046875 4.18945312 11.8440156 4.9137969 5.8183125-2.7714375.6420782-3.68895315c-4.6894454-4.68964844-11.1640547-7.69559375-18.3044063-7.69559375z" fill="#ff4b00"/><path d="m44.3045078 7.69549219-6.4604922 6.46049221 4.9137969 11.8440156 4.8560078 3.046875 4.3861797-3.046875c0-7.1403516-3.0059453-13.6149609-7.6954922-18.30450781z" fill="#ff9f00"/><path d="m42.7578125 26-4.9137969 11.8440156.2958516 6.3896016 6.1646406.0708906c4.6895469-4.6895469 7.6954922-11.1641562 7.6954922-18.3045078z" fill="#6b0"/><path d="m37.8440156 37.8440156-11.8440156 4.9137969-3.046875 5.0464375 3.046875 4.19575c7.1403516 0 13.6149609-3.0059453 18.3045078-7.6954922z" fill="#00cc71"/><path d="m14.1559844 37.8440156-6.00874221-.0850078-.45175 6.5455c4.68954691 4.6895469 11.16415621 7.6954922 18.30450781 7.6954922v-9.2421875z" fill="#0095ff"/><path d="m9.2421875 26-4.47514844-3.046875-4.76703906 3.046875c0 7.1403516 3.00594531 13.6149609 7.69549219 18.3045078l6.46049221-6.4604922z" fill="#6b77e8"/><path d="m11.5751797 8.52810156-3.87958595-.83260937c-4.68964844 4.68954691-7.69559375 11.16415621-7.69559375 18.30450781h9.2421875l4.9137969-11.8440156z" fill="#b760ea"/><path d="m26 9.2421875v-9.2421875c-7.1403516 0-13.6149609 3.00594531-18.30450781 7.69549219l6.46049221 6.46049221c3.0343828-3.0343828 7.2238359-4.9137969 11.8440156-4.9137969z" fill="#ff193d"/><path d="m26 9.2421875-3.046875 4.5703125 3.046875 4.5703125 5.3835234 2.2336641 6.0422578-2.9953828.4182344-3.4651094c-3.0343828-3.0343828-7.2238359-4.9137969-11.8440156-4.9137969z" fill="#ff7816"/><path d="m37.8440156 14.1559844-6.4604922 6.4604922 2.2336641 5.3835234 4.2268281 3.046875 4.9137969-3.046875c0-4.6201797-1.8794141-8.8096328-4.9137969-11.8440156z" fill="#fdbf00"/><path d="m33.6171875 26-2.2336641 5.3835234.7217032 3.7685782 5.738789 2.691914c3.0343828-3.0343828 4.9137969-7.2238359 4.9137969-11.8440156z" fill="#7d0"/><path d="m31.3835234 31.3835234-5.3835234 2.2336641-3.046875 4.7607422 3.046875 4.3798828c4.6201797 0 8.8096328-1.8794141 11.8440156-4.9137969z" fill="#00dd7b"/><path d="m20.6164766 31.3835234-6.4864922.3927422.026 6.06775c3.0343828 3.0343828 7.2238359 4.9137969 11.8440156 4.9137969v-9.140625z" fill="#3aaaff"/><path d="m18.3828125 26-4.2528281-3.046875-4.8877969 3.046875c0 4.6201797 1.8794141 8.8096328 4.9137969 11.8440156l6.4604922-6.4604922z" fill="#7984eb"/><path d="m20.2871094 14.1933594-6.131125-.037375c-3.0343828 3.0343828-4.9137969 7.2238359-4.9137969 11.8440156h9.140625l2.2336641-5.3835234z" fill="#cb75f6"/><path d="m14.1559844 14.1559844 6.4604922 6.4604922 5.3835234-2.2336641v-9.140625c-4.6201797 0-8.8096328 1.8794141-11.8440156 4.9137969z" fill="#ff4949"/><path d="m31.3835234 20.6164766c-1.3793203-1.3793203-3.2836172-2.2336641-5.3835234-2.2336641l-3.046875 2.9992422 3.046875 4.6179453 5.7386875-2.6918125z" fill="#ff9f00"/><path d="m33.6171875 26c0-2.0999062-.8543437-4.0042031-2.2336641-5.3835234l-5.3835234 5.3835234 4.8559063 3.046875z" fill="#ffd400"/><path d="m31.3835234 31.3835234c1.3793204-1.3793203 2.2336641-3.2836172 2.2336641-5.3835234h-7.6171875l2.6918125 5.7386875z" fill="#89f900"/><path d="m26 26-3.046875 4.2846172 3.046875 3.3325703c2.0999063 0 4.0042031-.8543437 5.3835234-2.2336641z" fill="#00ee84"/><path d="m26 26-4.5703125 1.5234375-.8132109 3.8600859c1.3793203 1.3793204 3.2836172 2.2336641 5.3835234 2.2336641z" fill="#73bcff"/><path d="m18.3828125 26c0 2.0999063.8543438 4.0042031 2.2336641 5.3835234l5.3835234-5.3835234-4.4750469-1.5234375z" fill="#979fef"/><path d="m20.6164766 20.6164766c-1.3793203 1.3793203-2.2336641 3.2836172-2.2336641 5.3835234h7.6171875l-1.5234375-4.5703125z" fill="#da90f8"/><path d="m26 18.3828125c-2.0999062 0-4.0042031.8543438-5.3835234 2.2336641l5.3835234 5.3835234z" fill="#ff6c6c"/></g></g></svg>